<svg xmlns="http://www.w3.org/2000/svg" viewBox="0 0 400 260" width="800" height="520"><style>
.wf-bg{fill:#fdfdfc}.wf-panel{fill:#f4f3f0}.wf-line{stroke:#d6d3cd;stroke-width:1}.wf-bar{fill:#dedbd5}
.wf-fill{fill:#e9e7e2}.wf-ink{fill:#2b2a28}.wf-acc{fill:#17703a}.wf-on-acc{fill:#fdfdfc}
.wf-acc-line{stroke:#17703a;stroke-width:1.5}.wf-mono{fill:#17703a;opacity:.55}.wf-warn{fill:#f5e6bf}
.wf-stroke{fill:none;stroke:#d6d3cd;stroke-width:1.2}
.wf-check{fill:none;stroke:#fdfdfc;stroke-width:1.4;stroke-linecap:round;stroke-linejoin:round}
.wf-t{fill:#6f6c66;font-family:Manrope,'Segoe UI',system-ui,sans-serif;font-size:7px;font-weight:500}
.wf-tb{fill:#2b2a28;font-family:Manrope,'Segoe UI',system-ui,sans-serif;font-size:7.5px;font-weight:700}
.wf-h{font-size:11px;letter-spacing:-.02em}.wf-big{font-size:13px}.wf-on-acc-t{fill:#fdfdfc;font-weight:700}
</style><rect x="0.75" y="0.75" width="398.5" height="258.5" rx="10" class="wf-bg wf-line"/><path d="M10.75 0.75 H84 V259.25 H10.75 A10 10 0 0 1 0.75 249.25 V10.75 A10 10 0 0 1 10.75 0.75 Z" class="wf-panel"/><line x1="84" y1="0.75" x2="84" y2="259.25" class="wf-line"/><circle cx="42" cy="22" r="9" class="wf-line wf-bg"/><rect x="24" y="38" width="36" height="3" rx="1.5" class="wf-ink"/><rect x="28" y="45" width="28" height="4" rx="2.0" class="wf-bar"/><rect x="14" y="61" width="6" height="6" rx="1.5" class="wf-bar"/><rect x="26" y="62" width="30" height="4" rx="2.0" class="wf-bar"/><rect x="8" y="76" width="68" height="14" rx="4" class="wf-acc"/><rect x="26" y="81" width="34" height="4" rx="2.0" class="wf-on-acc"/><rect x="14" y="80" width="6" height="6" rx="1.5" class="wf-on-acc"/><rect x="14" y="99" width="6" height="6" rx="1.5" class="wf-bar"/><rect x="26" y="100" width="30" height="4" rx="2.0" class="wf-bar"/><rect x="14" y="118" width="6" height="6" rx="1.5" class="wf-bar"/><rect x="26" y="119" width="37" height="4" rx="2.0" class="wf-bar"/><rect x="14" y="137" width="6" height="6" rx="1.5" class="wf-bar"/><rect x="26" y="138" width="30" height="4" rx="2.0" class="wf-bar"/><rect x="14" y="156" width="6" height="6" rx="1.5" class="wf-bar"/><rect x="26" y="157" width="37" height="4" rx="2.0" class="wf-bar"/><rect x="14" y="175" width="6" height="6" rx="1.5" class="wf-bar"/><rect x="26" y="176" width="30" height="4" rx="2.0" class="wf-bar"/><line x1="84" y1="24" x2="399.25" y2="24" class="wf-line"/><rect x="98" y="10" width="10" height="2" rx="1.0" class="wf-ink"/><rect x="98" y="14" width="10" height="2" rx="1.0" class="wf-ink"/><rect x="300" y="9" width="36" height="3" rx="1.5" class="wf-ink"/><rect x="306" y="15" width="24" height="4" rx="2.0" class="wf-bar"/><circle cx="350" cy="12" r="6" class="wf-line wf-bg"/><rect x="362" y="6" width="28" height="12" rx="6" class="wf-line wf-bg"/><text x="98" y="44" class="wf-tb wf-h">Session Control</text><rect x="98" y="50" width="150" height="4" rx="2.0" class="wf-bar"/><rect x="98" y="58" width="66" height="14" rx="7" class="wf-acc"/><text x="131.0" y="68" class="wf-t wf-on-acc-t" text-anchor="middle">Resume all</text><rect x="170" y="58" width="56" height="14" rx="7" class="wf-line wf-bg"/><text x="198.0" y="68" class="wf-t" text-anchor="middle">Pause all</text><rect x="232" y="58" width="76" height="14" rx="7" class="wf-line wf-bg"/><text x="270.0" y="68" class="wf-t" text-anchor="middle">End &amp; restart</text><rect x="98" y="80" width="92" height="40" rx="6" class="wf-panel wf-line"/><text x="106" y="93" class="wf-t">Running</text><text x="106" y="112" class="wf-tb wf-big">0</text><circle cx="177" cy="93" r="6" class="wf-line wf-bg"/><rect x="196" y="80" width="92" height="40" rx="6" class="wf-panel wf-line"/><text x="204" y="93" class="wf-t">Paused</text><text x="204" y="112" class="wf-tb wf-big">0</text><circle cx="275" cy="93" r="6" class="wf-line wf-bg"/><rect x="294" y="80" width="92" height="40" rx="6" class="wf-panel wf-line"/><text x="302" y="93" class="wf-t">Command logs</text><text x="302" y="112" class="wf-tb wf-big">0</text><circle cx="373" cy="93" r="6" class="wf-line wf-bg"/><rect x="98" y="128" width="288" height="124" rx="6" class="wf-bg wf-line"/><rect x="106" y="136" width="110" height="12" rx="6" class="wf-panel wf-line"/><rect x="320" y="136" width="58" height="12" rx="6" class="wf-ink"/><rect x="106" y="154" width="272" height="14" rx="3" class="wf-panel"/><text x="110" y="164" class="wf-t">Session</text><text x="160" y="164" class="wf-t">Student</text><text x="210" y="164" class="wf-t">Station</text><text x="258" y="164" class="wf-t">Started</text><text x="306" y="164" class="wf-t">Status</text><text x="350" y="164" class="wf-t"></text><rect x="110" y="180" width="30" height="4" rx="2.0" class="wf-bar"/><rect x="160" y="180" width="36" height="4" rx="2.0" class="wf-bar"/><rect x="210" y="180" width="26" height="4" rx="2.0" class="wf-bar"/><rect x="258" y="180" width="32" height="4" rx="2.0" class="wf-bar"/><rect x="306" y="177" width="28" height="10" rx="5" class="wf-acc"/><rect x="350" y="180" width="18" height="4" rx="2.0" class="wf-ink"/><line x1="106" y1="189" x2="378" y2="189" class="wf-line"/><rect x="110" y="196" width="30" height="4" rx="2.0" class="wf-bar"/><rect x="160" y="196" width="36" height="4" rx="2.0" class="wf-bar"/><rect x="210" y="196" width="26" height="4" rx="2.0" class="wf-bar"/><rect x="258" y="196" width="32" height="4" rx="2.0" class="wf-bar"/><rect x="306" y="193" width="28" height="10" rx="5" class="wf-acc"/><rect x="350" y="196" width="18" height="4" rx="2.0" class="wf-ink"/><line x1="106" y1="205" x2="378" y2="205" class="wf-line"/><rect x="110" y="212" width="30" height="4" rx="2.0" class="wf-bar"/><rect x="160" y="212" width="36" height="4" rx="2.0" class="wf-bar"/><rect x="210" y="212" width="26" height="4" rx="2.0" class="wf-bar"/><rect x="258" y="212" width="32" height="4" rx="2.0" class="wf-bar"/><rect x="306" y="209" width="28" height="10" rx="5" class="wf-fill"/><rect x="350" y="212" width="18" height="4" rx="2.0" class="wf-ink"/><line x1="106" y1="221" x2="378" y2="221" class="wf-line"/><rect x="110" y="228" width="30" height="4" rx="2.0" class="wf-bar"/><rect x="160" y="228" width="36" height="4" rx="2.0" class="wf-bar"/><rect x="210" y="228" width="26" height="4" rx="2.0" class="wf-bar"/><rect x="258" y="228" width="32" height="4" rx="2.0" class="wf-bar"/><rect x="306" y="225" width="28" height="10" rx="5" class="wf-fill"/><rect x="350" y="228" width="18" height="4" rx="2.0" class="wf-ink"/><line x1="106" y1="237" x2="378" y2="237" class="wf-line"/></svg>
